# AST/ASF file generated using VICON BodyLanguage
# -----------------------------------------------
:version 1.10
:name VICON
:units
  mass 1.0
  length 0.45
  angle deg
:documentation
   .ast/.asf automatically generated from VICON data using
   VICON BodyBuilder and BodyLanguage model FoxedUp or BRILLIANT.MOD
:root
   order TX TY TZ RX RY RZ
   axis XYZ
   position 0 0 0  
   orientation 0 -0 0 
:bonedata
  begin
     id 1 
     name lhipjoint
     direction 0.515797 -0.759363 0.396637 
     length 2.47888 
     axis 0 -0 0  XYZ
  end
  begin
     id 2 
     name lfemur
     direction 0.34202 -0.939693 0  
     length 6.81885  
     axis 0 -0 20  XYZ
    dof rx ry rz
    limits (-160.0 20.0)
           (-70.0 70.0)
           (-60.0 70.0)
  end
  begin
     id 3 
     name ltibia
     direction 0.342037 -0.939687 0   
     length 7.89258   
     axis 0 -0 20   XYZ
    dof rx
    limits (-10.0 170.0)
  end
  begin
     id 4 
     name lfoot
     direction 0.173497 -0.476678 0.861787   
     length 2.51543   
     axis -90 -1.13533e-015 20   XYZ
    dof rx rz
    limits (-45.0 90.0)
           (-70.0 20.0)
  end
  begin
     id 5 
     name ltoes
     direction 1.53564e-011 -4.21897e-011 1   
     length 1.21388   
     axis -90 -1.13533e-015 20   XYZ
    dof rx
    limits (-90.0 20.0)
  end
  begin
     id 6 
     name rhipjoint
     direction -0.489454 -0.772941 0.403729   
     length 2.43534  
     axis 0 -0 0  XYZ 
  end
  begin
     id 7 
     name rfemur
     direction -0.34202 -0.939693 0   
     length 7.10357   
     axis 0 -0 -20   XYZ
    dof rx ry rz
    limits (-160.0 20.0)
           (-70.0 70.0)
           (-70.0 60.0)
  end
  begin
     id 8 
     name rtibia
     direction -0.34202 -0.939693 0   
     length 9.16127   
     axis 0 -0 -20   XYZ
    dof rx
    limits (-10.0 170.0)
 end
 begin
     id 9 
     name rfoot
     direction -0.270974 -0.748671 0.605033   
     length 1.74894  
     axis -90 1.13533e-015 -20   XYZ
    dof rx rz
    limits (-45.0 90.0)
           (-20.0 70.0)
  end
  begin
     id 10 
     name rtoes
     direction -1.53557e-011 -4.21759e-011 1   
     length 0.787585   
     axis -90 1.13533e-015 -20   XYZ
    dof rx
    limits (-90.0 20.0)
  end
  begin
     id 11 
     name lowerback
     direction -0.0140249 0.999561 0.0260968   
     length 2.16963   
     axis 0 -0 0   XYZ
    dof rx ry rz
    limits (-20.0 45.0)
           (-30.0 30.0)
           (-30.0 30.0)
  end
  begin
     id 12 
     name upperback
     direction 0.00860018 0.999959 -0.002711   
     length 2.1726   
     axis 0 -0 0   XYZ
    dof rx ry rz
    limits (-20.0 45.0)
           (-30.0 30.0)
           (-30.0 30.0)
  end
  begin
     id 13 
     name thorax
     direction 0.015211 0.999782 -0.0143191   
     length 2.17061   
     axis 0 -0 0   XYZ
    dof rx ry rz
    limits (-20.0 45.0)
           (-30.0 30.0)
           (-30.0 30.0)
  end
  begin
     id 14 
     name lowerneck
     direction -0.0140143 0.999447 0.030145   
     length 2.26749   
     axis 0 -0 0   XYZ
    dof rx ry rz
    limits (-20.0 45.0)
           (-30.0 30.0)
           (-30.0 30.0)
  end
  begin
     id 15 
     name upperneck
     direction 0.118062 0.961438 -0.248392   
     length 2.22728   
     axis 0 -0 0   XYZ
    dof rx ry rz
    limits (-20.0 45.0)
           (-30.0 30.0)
           (-30.0 30.0)
  end
  begin
     id 16
     name head
     direction 0.0431885 0.9954 -0.085514  
     length 2.28786  
     axis 0 -0 0   XYZ
    dof rx ry rz
    limits (-20.0 45.0)
           (-30.0 30.0)
           (-30.0 30.0)
  end
  begin
     id 17 
     name lclavicle
     direction 0.912126 0.409548 0.0172323  
     length 4.31571  
     axis 0 -0 0   XYZ
    dof ry rz
    limits (-20.0 10.0)
           (0.0 20.0)
  end
  begin
     id 18 
     name lhumerus
     direction 1 -4.48977e-011 1.93091e-027   
     length 5.13658   
     axis 180 -30 -90   XYZ
    dof rx ry rz
    limits (-60.0 90.0)
           (-90.0 90.0)
           (-90.0 90.0)
  end
  begin
     id 19
     name lradius
     direction 1 -4.48916e-011 6.84018e-027   
     length 3.22473   
     axis 180 -30 -90   XYZ
    dof rx
    limits (-10.0 170.0)
  end
  begin
     id 20
     name lwrist
     direction 1 -4.48987e-011 7.01981e-027   
     length 1.61236   
     axis -4.37994e-015 90 90   XYZ
    dof ry
    limits (-180.0 0.0)
 end
  begin
     id 21 
     name lhand
     direction 1 -4.49037e-011 1.40335e-026   
     length 0.936406   
     axis -8.96029e-015 90 90   XYZ
    dof rx rz
    limits (-90.0 90.0)
           (-45.0 45.0)
  end
  begin
     id 22 
     name lfingers
     direction 1 -4.48886e-011 2.8104e-026   
     length 0.754955   
     axis -1.79203e-014 90 90   XYZ
    dof rx
    limits (0.0 90.0)
  end
  begin
     id 23
     name lthumb
     direction 0.707107 -6.34937e-011 0.707107   
     length 1.08397   
     axis -90 45 -4.48555e-014   XYZ
    dof rx rz
    limits (-45.0 45.0)
           (-45.0 45.0)
  end
  begin
     id 24 
     name rclavicle
     direction -0.947962 0.317997 0.0156638   
     length 4.86918  
     axis 0 -0 0   XYZ 
    dof ry rz
    limits (-10.0 20.0)
           (-20.0 0.0)
  end
  begin
     id 25 
     name rhumerus
     direction -1 -4.48951e-011 2.80534e-018  
     length 5.60911   
     axis 180 30 90   XYZ
    dof rx ry rz
    limits (-90.0 60.0)
           (-90.0 90.0)
           (-90.0 90.0)
  end
  begin
     id 26 
     name rradius
     direction -1 -4.4898e-011 2.11315e-027   
     length 3.38704   
     axis 180 30 90   XYZ
    dof rx
    limits (-10.0 170.0)
  end
  begin
     id 27 
     name rwrist
     direction -1 -4.48933e-011 7.02314e-027   
     length 1.69352   
     axis -4.37994e-015 -90 -90   XYZ
    dof ry
    limits (-180.0 0.0)
  end
  begin
     id 28
     name rhand
     direction -1 -4.48937e-011 1.40458e-026   
     length 0.755878   
     axis -8.96029e-015 -90 -90   XYZ
    dof rx rz
    limits (-90.0 90.0)
           (-45.0 45.0)
  end
  begin
     id 29
     name rfingers
     direction -1 -4.4901e-011 2.80737e-026   
     length 0.609409   
     axis -1.79203e-014 -90 -90   XYZ
    dof rx
    limits (0.0 90.0)
  end
  begin
     id 30
     name rthumb
     direction -0.707107 -6.34968e-011 0.707107   
     length 0.874992   
     axis -90 -45 4.48555e-014   XYZ
    dof rx rz
    limits (-45.0 45.0)
           (-45.0 45.0)
  end
:hierarchy
  begin
    root lhipjoint rhipjoint lowerback
    lhipjoint lfemur
    lfemur ltibia
    ltibia lfoot
    lfoot ltoes
    rhipjoint rfemur
    rfemur rtibia
    rtibia rfoot
    rfoot rtoes
    lowerback upperback
    upperback thorax
    thorax lowerneck lclavicle rclavicle
    lowerneck upperneck
    upperneck head
    lclavicle lhumerus
    lhumerus lradius
    lradius lwrist
    lwrist lhand lthumb
    lhand lfingers
    rclavicle rhumerus
    rhumerus rradius
    rradius rwrist
    rwrist rhand rthumb
    rhand rfingers
  end

#!OML:ASF C:\ViconDB\ViconDB\414\Spring2016\041811\Spring2016.ASF
:FULLY-SPECIFIED
:DEGREES
139
root 9.54655 17.9408 -2.84757 -181.882 -0.517596 -176.617
lowerback 5.63074 0.606743 1.92327
upperback 2.96555 0.674459 2.39262
thorax -0.10893 0.236558 1.34091
lowerneck -11.1617 -3.97858 -11.5615
upperneck 14.9797 -6.98399 16.4957
head 7.40376 -2.9884 6.6867
rclavicle -4.17448e-015 -3.77691e-014
rhumerus -45.0984 -20.2565 -77.7393
rradius 32.7873
rwrist 40.5101
rhand -33.901 -13.9787
rfingers 7.12502
rthumb -7.084 -43.8401
lclavicle -4.17448e-015 -3.77691e-014
lhumerus -35.5626 0.535607 89.0541
lradius 25.2531
lwrist -33.5001
lhand -29.9173 19.5665
lfingers 7.12502
lthumb -3.23756 49.5217
rfemur -14.581 -15.1593 25.3961
rtibia 32.5363
rfoot -160.05 12.4022
rtoes -14.8092
lfemur -11.3183 5.78819 -6.35789
ltibia 65.2918
lfoot -2.42573 1.73832
ltoes -11.8747
140
root 9.57936 17.9543 -2.97902 -181.992 -0.25121 -176.74
lowerback 5.85147 0.779028 1.71199
upperback 2.95532 0.899471 2.43502
thorax -0.248672 0.34505 1.48813
lowerneck -11.0585 -4.0603 -11.7571
upperneck 15.0059 -7.08573 16.5401
head 7.41751 -3.04904 6.7272
rclavicle -9.29318e-015 -3.29983e-014
rhumerus -44.4742 -19.3675 -78.2477
rradius 33.0385
rwrist 40.1823
rhand -33.9063 -14.3255
rfingers 7.12502
rthumb -7.08908 -44.1868
lclavicle -9.29318e-015 -3.29983e-014
lhumerus -35.5509 1.34538 88.796
lradius 24.4834
lwrist -34.5851
lhand -29.9436 19.5769
lfingers 7.12502
lthumb -3.26298 49.5316
rfemur -13.5998 -14.9264 25.2521
rtibia 31.9656
rfoot -160.234 12.6142
rtoes -14.7839
lfemur -12.6674 6.49762 -6.35358
ltibia 66.422
lfoot -2.87997 1.94279
ltoes -12.3501
141
root 9.60576 17.9651 -3.11712 -182.1 0.13476 -176.901
lowerback 6.04663 0.647905 1.58505
upperback 2.92473 1.21372 2.34866
thorax -0.399617 0.710438 1.44695
lowerneck -11.069 -4.07149 -11.6692
upperneck 15.247 -7.13979 16.4199
head 7.49685 -3.07915 6.66897
rclavicle 4.37326e-015 3.97569e-015
rhumerus -43.9694 -18.6539 -78.7447
rradius 33.2768
rwrist 40.0469
rhand -34.1598 -14.2565
rfingers 7.12502
rthumb -7.33385 -44.1094
lclavicle 4.37326e-015 3.97569e-015
lhumerus -35.8985 1.44705 88.5954
lradius 24.1711
lwrist -34.9194
lhand -29.7432 19.4781
lfingers 7.12502
lthumb -3.06949 49.4358
rfemur -12.5945 -14.709 25.0274
rtibia 31.3762
rfoot -160.321 12.9265
rtoes -14.6969
lfemur -13.8621 7.27116 -6.47366
ltibia 67.259
lfoot -3.4735 2.25593
ltoes -11.9149
142
root 9.63339 17.9775 -3.25236 -182.144 0.433805 -177.032
lowerback 6.17573 0.804548 1.52443
upperback 2.88995 1.41639 2.25848
thorax -0.509022 0.808544 1.37242
lowerneck -10.9903 -4.07569 -11.7835
upperneck 15.3241 -7.1901 16.5756
head 7.52475 -3.10693 6.74106
rclavicle 1.80894e-014 1.90833e-014
rhumerus -43.3816 -18.0062 -79.336
rradius 33.6075
rwrist 39.2745
rhand -34.1958 -14.3284
rfingers 7.12502
rthumb -7.36861 -44.1801
lclavicle 1.80894e-014 1.90833e-014
lhumerus -36.0167 1.90249 88.2429
lradius 23.6399
lwrist -35.477
lhand -29.6762 19.3531
lfingers 7.12502
lthumb -3.0048 49.3117
rfemur -11.6858 -14.4731 24.8634
rtibia 30.8169
rfoot -160.521 13.1762
rtoes -14.6644
lfemur -15.1259 7.85543 -6.68221
ltibia 67.8286
lfoot -3.94688 2.59591
ltoes -11.979
143
root 9.65752 17.996 -3.39289 -182.161 0.688749 -177.167
lowerback 6.27913 0.923939 1.47121
upperback 2.81645 1.56866 2.20316
thorax -0.643826 0.880596 1.33213
lowerneck -10.9382 -4.06462 -11.7172
upperneck 15.4755 -7.17569 16.3829
head 7.55111 -3.11072 6.66728
rclavicle -1.49089e-016 4.37326e-015
rhumerus -42.8638 -17.4251 -79.6629
rradius 33.7984
rwrist 39.7953
rhand -34.1649 -14.3476
rfingers 7.12502
rthumb -7.33877 -44.2003
lclavicle -1.49089e-016 4.37326e-015
lhumerus -36.3633 2.33903 87.9386
lradius 23.286
lwrist -36.3994
lhand -29.4139 19.4417
lfingers 7.12502
lthumb -2.75141 49.4037
rfemur -10.7928 -14.3076 24.6827
rtibia 30.264
rfoot -160.682 13.4418
rtoes -14.557
lfemur -16.3376 8.35714 -6.93486
ltibia 68.1119
lfoot -4.40843 2.76433
ltoes -11.5449
144
root 9.68178 17.9971 -3.53097 -182.087 0.984669 -177.224
lowerback 6.19145 1.05443 1.47384
upperback 2.77519 1.73093 2.12445
thorax -0.637143 0.958151 1.24023
lowerneck -10.8011 -4.06185 -11.8776
upperneck 15.5083 -7.22073 16.5935
head 7.55694 -3.13886 6.767
rclavicle -1.57537e-014 -2.78299e-015
rhumerus -42.2124 -16.9133 -80.1555
rradius 33.9595
rwrist 39.7129
rhand -34.4297 -14.3758
rfingers 7.12502
rthumb -7.59434 -44.2195
lclavicle -1.57537e-014 -2.78299e-015
lhumerus -36.6147 2.35054 87.7909
lradius 23.1339
lwrist -36.1149
lhand -29.2039 19.2338
lfingers 7.12502
lthumb -2.54858 49.1983
rfemur -10.0749 -14.0565 24.6375
rtibia 29.7911
rfoot -160.932 13.6748
rtoes -14.5119
lfemur -17.6336 8.72388 -7.20147
ltibia 68.1995
lfoot -5.12504 3.13888
ltoes -11.3006
145
root 9.70538 17.9992 -3.67777 -182.126 1.231 -177.371
lowerback 6.08387 1.14141 1.38259
upperback 2.82525 1.83232 2.02218
thorax -0.526496 1.00737 1.18309
lowerneck -10.8674 -4.04485 -11.7233
upperneck 15.6183 -7.1783 16.3534
head 7.5829 -3.11976 6.66192
rclavicle 1.55052e-014 -1.90833e-014
rhumerus -41.4558 -16.2306 -80.8161
rradius 34.2167
rwrist 39.1644
rhand -34.4607 -14.3794
rfingers 7.12502
rthumb -7.62426 -44.222
lclavicle 1.55052e-014 -1.90833e-014
lhumerus -36.9445 2.13494 87.658
lradius 23.0493
lwrist -36.0487
lhand -29.0728 19.3405
lfingers 7.12502
lthumb -2.42199 49.3065
rfemur -9.20733 -13.9257 24.4386
rtibia 29.3468
rfoot -161.192 13.9702
rtoes -14.3666
lfemur -18.6837 9.28721 -7.48885
ltibia 68.0303
lfoot -5.85877 3.17996
ltoes -11.2718
146
root 9.73045 17.999 -3.82036 -182.13 1.30017 -177.462
lowerback 5.94103 1.19101 1.28647
upperback 2.87077 1.8866 1.98685
thorax -0.402771 1.03368 1.2017
lowerneck -10.8938 -4.02364 -11.7516
upperneck 15.7158 -7.14569 16.3123
head 7.61313 -3.1064 6.65868
rclavicle -9.0447e-015 -2.26615e-014
rhumerus -40.7171 -15.215 -81.4585
rradius 34.6307
rwrist 38.1608
rhand -33.9619 -14.2189
rfingers 7.12502
rthumb -7.14281 -44.0784
lclavicle -9.0447e-015 -2.26615e-014
lhumerus -37.1919 2.30545 87.5175
lradius 22.928
lwrist -36.2218
lhand -28.8992 19.3763
lfingers 7.12502
lthumb -2.25434 49.3442
rfemur -8.41049 -13.7786 24.299
rtibia 28.9983
rfoot -161.634 14.2344
rtoes -14.3203
lfemur -19.7934 9.5034 -7.83503
ltibia 67.638
lfoot -6.46168 3.35019
ltoes -11.1119
147
root 9.74331 17.9967 -3.95595 -181.983 1.68098 -177.5
lowerback 5.75197 1.33543 1.42145
upperback 2.87112 2.07439 1.91416
thorax -0.29226 1.12696 1.04549
lowerneck -10.9878 -4.02041 -11.7252
upperneck 15.8553 -7.09793 16.0875
head 7.65829 -3.088 6.5833
rclavicle -3.8266e-015 -3.4191e-014
rhumerus -40.003 -14.683 -81.8832
rradius 35.0191
rwrist 37.8307
rhand -34.1168 -14.4875
rfingers 7.12502
rthumb -7.29232 -44.3418
lclavicle -3.8266e-015 -3.4191e-014
lhumerus -37.3945 2.69613 87.178
lradius 22.6778
lwrist -36.7478
lhand -28.8943 19.0658
lfingers 7.12502
lthumb -2.24959 49.0337
rfemur -7.84657 -13.7329 24.2041
rtibia 28.6228
rfoot -161.668 14.6901
rtoes -14.1927
lfemur -20.9976 9.88891 -8.22086
ltibia 67.0721
lfoot -7.29186 3.62807
ltoes -10.9721
148
root 9.75929 17.9871 -4.09646 -181.899 1.82044 -177.506
lowerback 5.64792 1.38839 1.52001
upperback 2.83845 2.14029 1.83647
thorax -0.262066 1.15839 0.909295
lowerneck -10.9483 -4.00286 -11.6888
upperneck 15.9011 -7.06968 15.9933
head 7.65635 -3.08015 6.54837
rclavicle 1.29955e-014 -1.98785e-015
rhumerus -39.3827 -14.0684 -82.3843
rradius 35.4007
rwrist 37.2738
rhand -34.0822 -14.3699
rfingers 7.12502
rthumb -7.25889 -44.2254
lclavicle 1.29955e-014 -1.98785e-015
lhumerus -37.8511 1.94646 87.3797
lradius 22.8406
lwrist -35.7985
lhand -29.0085 19.1332
lfingers 7.12502
lthumb -2.3599 49.0999
rfemur -7.22314 -14.0898 24.1229
rtibia 28.2585
rfoot -161.545 15.2272
rtoes -14.2175
lfemur -22.1231 10.0082 -8.56181
ltibia 66.2976
lfoot -8.10789 3.87825
ltoes -10.8777
149
root 9.77356 17.9825 -4.23746 -181.888 1.90777 -177.493
lowerback 5.58714 1.45473 1.62348
upperback 2.84554 2.23056 1.80411
thorax -0.216275 1.20441 0.815212
lowerneck -10.875 -3.99685 -11.7583
upperneck 15.882 -7.03612 15.9481
head 7.63206 -3.0724 6.549
rclavicle 1.11319e-014 5.56597e-015
rhumerus -38.7533 -13.3522 -82.8114
rradius 35.8189
rwrist 36.7064
rhand -33.9527 -14.4289
rfingers 7.12502
rthumb -7.13386 -44.2886
lclavicle 1.11319e-014 5.56597e-015
lhumerus -38.1675 1.39846 87.5533
lradius 22.9527
lwrist -35.4337
lhand -28.6905 19.3061
lfingers 7.12502
lthumb -2.05281 49.276
rfemur -6.44079 -14.3911 23.9929
rtibia 27.8235
rfoot -161.497 15.7278
rtoes -14.0535
lfemur -23.1131 9.90949 -8.94569
ltibia 65.3162
lfoot -8.95993 4.27113
ltoes -10.7492
150
root 9.78796 17.9775 -4.38125 -181.771 2.09095 -177.564
lowerback 5.39605 1.54157 1.64177
upperback 2.84893 2.33517 1.73165
thorax -0.10308 1.25534 0.73134
lowerneck -11.0387 -4.02295 -11.4792
upperneck 16.0358 -7.00265 15.4348
head 7.67814 -3.06055 6.32551
rclavicle -1.77912e-014 -1.55052e-014
rhumerus -38.0829 -12.7044 -83.2364
rradius 36.286
rwrist 36.1047
rhand -33.6587 -14.4131
rfingers 7.12502
rthumb -6.85006 -44.2823
lclavicle -1.77912e-014 -1.55052e-014
lhumerus -38.4159 1.49475 87.3332
lradius 22.9366
lwrist -35.9712
lhand -28.2593 19.1419
lfingers 7.12502
lthumb -1.63633 49.1154
rfemur -5.76967 -14.5235 23.8134
rtibia 27.3863
rfoot -161.484 16.2104
rtoes -13.2202
lfemur -24.1195 9.82069 -9.40927
ltibia 64.1292
lfoot -9.86522 4.68397
ltoes -10.7709
